<svg id="Artboards" xmlns="http://www.w3.org/2000/svg" viewBox="0 0 300 42"><defs><style>.cls-1{isolation:isolate;}.cls-2{fill:#08833d;}.cls-3{fill:#2d3e51;}.cls-4{fill:#2fc877;}</style></defs><g id="w_background" data-name="w/ background"><g id="Create_an_account" data-name="Create an account"><g class="cls-1"><path class="cls-2" d="M116.85,16.9a2.22,2.22,0,0,0-2,1,4.65,4.65,0,0,0-.7,2.8c0,2.4.9,3.7,2.7,3.7a7.37,7.37,0,0,0,2.7-.6v2a7.17,7.17,0,0,1-2.9.6,4.47,4.47,0,0,1-3.6-1.5,6,6,0,0,1-1.2-4.2,7.31,7.31,0,0,1,.6-3,4.8,4.8,0,0,1,1.7-2,4.73,4.73,0,0,1,2.7-.7,7.14,7.14,0,0,1,3.1.8l-.7,1.9a6.12,6.12,0,0,0-1.2-.5A2.66,2.66,0,0,0,116.85,16.9Z"/><path class="cls-2" d="M126.25,17.6a2,2,0,0,1,.8.1l-.2,2.1c-.2,0-.4-.1-.7-.1a2.35,2.35,0,0,0-1.7.6,2.11,2.11,0,0,0-.6,1.6v4.3h-2.2V17.8h1.7l.3,1.4h.1a3.57,3.57,0,0,1,1-1.1A2.26,2.26,0,0,1,126.25,17.6Z"/><path class="cls-2" d="M132.25,26.3a4.5,4.5,0,0,1-3.1-1.1,4,4,0,0,1-1.1-3.2,4.83,4.83,0,0,1,1-3.3,3.49,3.49,0,0,1,2.8-1.2,3.34,3.34,0,0,1,2.7,1,4.14,4.14,0,0,1,1,2.8v1.1h-5.3a1.75,1.75,0,0,0,.6,1.5,2.25,2.25,0,0,0,1.5.5,5.9,5.9,0,0,0,1.4-.2,12.13,12.13,0,0,0,1.4-.5v1.8a5,5,0,0,1-1.3.4A7.49,7.49,0,0,1,132.25,26.3Zm-.4-7.1a1.43,1.43,0,0,0-1.1.5,2.23,2.23,0,0,0-.5,1.3h3.1a2.23,2.23,0,0,0-.4-1.3C132.75,19.3,132.35,19.2,131.85,19.2Z"/><path class="cls-2" d="M142.55,26.1l-.4-1.1h-.1a3.54,3.54,0,0,1-1.2,1,3.51,3.51,0,0,1-1.6.3,2.49,2.49,0,0,1-1.9-.7,2.58,2.58,0,0,1-.7-2,2.38,2.38,0,0,1,.9-2,5,5,0,0,1,2.8-.7h1.4v-.4a1.16,1.16,0,0,0-1.3-1.3,5.61,5.61,0,0,0-2.3.6l-.7-1.5a6.5,6.5,0,0,1,3.1-.8,3.73,3.73,0,0,1,2.5.7,2.66,2.66,0,0,1,.9,2.2V26h-1.4Zm-.6-3.9h-.9a2.41,2.41,0,0,0-1.5.4,1.23,1.23,0,0,0-.5,1,1,1,0,0,0,1.1,1,1.71,1.71,0,0,0,1.7-1.7v-.7Z"/><path class="cls-2" d="M149.85,24.4a3.93,3.93,0,0,0,1.4-.3v1.7a4.38,4.38,0,0,1-2.1.4,2.58,2.58,0,0,1-2-.7,3.28,3.28,0,0,1-.6-2.1v-4h-1.1v-1l1.2-.8.6-1.8h1.4v1.8H151v1.7h-2.3v4a.78.78,0,0,0,.3.7A1,1,0,0,0,149.85,24.4Z"/><path class="cls-2" d="M156.65,26.3a4.5,4.5,0,0,1-3.1-1.1,4,4,0,0,1-1.1-3.2,4.83,4.83,0,0,1,1-3.3,3.49,3.49,0,0,1,2.8-1.2,3.34,3.34,0,0,1,2.7,1,4.14,4.14,0,0,1,1,2.8v1.1h-5.3a1.75,1.75,0,0,0,.6,1.5,2.25,2.25,0,0,0,1.5.5,5.9,5.9,0,0,0,1.4-.2,12.13,12.13,0,0,0,1.4-.5v1.8a5,5,0,0,1-1.3.4A7.49,7.49,0,0,1,156.65,26.3Zm-.3-7.1a1.43,1.43,0,0,0-1.1.5,2.23,2.23,0,0,0-.5,1.3h3.1a2.23,2.23,0,0,0-.4-1.3A1.17,1.17,0,0,0,156.35,19.2Z"/><path class="cls-2" d="M170.85,26.1l-.4-1.1h-.1a3.54,3.54,0,0,1-1.2,1,3.51,3.51,0,0,1-1.6.3,2.49,2.49,0,0,1-1.9-.7,2.58,2.58,0,0,1-.7-2,2.38,2.38,0,0,1,.9-2,5,5,0,0,1,2.8-.7h1.4v-.4a1.16,1.16,0,0,0-1.3-1.3,5.61,5.61,0,0,0-2.3.6l-.7-1.5a6.5,6.5,0,0,1,3.1-.8,3.73,3.73,0,0,1,2.5.7,2.66,2.66,0,0,1,.9,2.2V26h-1.4Zm-.6-3.9h-.9a2.41,2.41,0,0,0-1.5.4,1.23,1.23,0,0,0-.5,1,1,1,0,0,0,1.1,1,1.71,1.71,0,0,0,1.7-1.7v-.7Z"/><path class="cls-2" d="M182.35,26.1h-2.2V21.2a2.65,2.65,0,0,0-.3-1.4,1.1,1.1,0,0,0-1-.5,1.68,1.68,0,0,0-1.4.6,3.69,3.69,0,0,0-.4,2.1v3.9h-2.2V17.5h1.7l.3,1.1h.1a2.19,2.19,0,0,1,1-.9,3.34,3.34,0,0,1,1.5-.3,3,3,0,0,1,2.2.8,3.17,3.17,0,0,1,.7,2.3v5.6Z"/><path class="cls-2" d="M193.75,26.1l-.4-1.1h-.1a3.54,3.54,0,0,1-1.2,1,3.51,3.51,0,0,1-1.6.3,2.49,2.49,0,0,1-1.9-.7,2.58,2.58,0,0,1-.7-2,2.38,2.38,0,0,1,.9-2,5,5,0,0,1,2.8-.7H193v-.4a1.16,1.16,0,0,0-1.3-1.3,5.61,5.61,0,0,0-2.3.6l-.7-1.5a6.5,6.5,0,0,1,3.1-.8,3.73,3.73,0,0,1,2.5.7,2.66,2.66,0,0,1,.9,2.2V26h-1.4Zm-.7-3.9h-.9a2.41,2.41,0,0,0-1.5.4,1.23,1.23,0,0,0-.5,1,1,1,0,0,0,1.1,1,1.71,1.71,0,0,0,1.7-1.7v-.7Z"/><path class="cls-2" d="M200.85,26.3c-2.5,0-3.8-1.4-3.8-4.3a4.83,4.83,0,0,1,1-3.3,3.72,3.72,0,0,1,3-1.1,5.14,5.14,0,0,1,2.5.6l-.7,1.8a10.37,10.37,0,0,1-1-.4,2.77,2.77,0,0,0-.9-.1c-1.2,0-1.7.8-1.7,2.5s.6,2.5,1.7,2.5a5,5,0,0,0,1.2-.2,3,3,0,0,0,1.1-.6v2a5.36,5.36,0,0,1-1.1.5C202,26.2,201.45,26.3,200.85,26.3Z"/><path class="cls-2" d="M208.65,26.3c-2.5,0-3.8-1.4-3.8-4.3a4.83,4.83,0,0,1,1-3.3,3.72,3.72,0,0,1,3-1.1,5.14,5.14,0,0,1,2.5.6l-.7,1.8a10.37,10.37,0,0,1-1-.4,2.77,2.77,0,0,0-.9-.1c-1.2,0-1.7.8-1.7,2.5s.6,2.5,1.7,2.5a5,5,0,0,0,1.2-.2,3,3,0,0,0,1.1-.6v2a5.36,5.36,0,0,1-1.1.5C209.65,26.2,209.15,26.3,208.65,26.3Z"/><path class="cls-2" d="M220.45,21.9a4.59,4.59,0,0,1-1.1,3.2,3.7,3.7,0,0,1-2.9,1.2,4.65,4.65,0,0,1-2.1-.5,4,4,0,0,1-1.4-1.5,5.21,5.21,0,0,1-.5-2.3,4.55,4.55,0,0,1,1-3.2,3.63,3.63,0,0,1,2.9-1.1,4.65,4.65,0,0,1,2.1.5,4,4,0,0,1,1.4,1.5A3.8,3.8,0,0,1,220.45,21.9Zm-5.7,0a3.36,3.36,0,0,0,.4,1.9,1.71,1.71,0,0,0,2.6,0,3.36,3.36,0,0,0,.4-1.9,3.36,3.36,0,0,0-.4-1.9,1.71,1.71,0,0,0-2.6,0A4.49,4.49,0,0,0,214.75,21.9Z"/><path class="cls-2" d="M228.05,26.1l-.3-1.1h-.1a2.19,2.19,0,0,1-1,.9,3.34,3.34,0,0,1-1.5.3,3,3,0,0,1-2.2-.8,3.17,3.17,0,0,1-.7-2.3V17.6h2.2v4.9a2.65,2.65,0,0,0,.3,1.4,1.1,1.1,0,0,0,1,.5,1.68,1.68,0,0,0,1.4-.6,3.69,3.69,0,0,0,.4-2.1V17.8h2.2v8.4h-1.7Z"/><path class="cls-2" d="M239.65,26.1h-2.2V21.2a2.65,2.65,0,0,0-.3-1.4,1.1,1.1,0,0,0-1-.5,1.68,1.68,0,0,0-1.4.6,3.69,3.69,0,0,0-.4,2.1v3.9h-2.2V17.5h1.7l.3,1.1h.1a2.19,2.19,0,0,1,1-.9,3.34,3.34,0,0,1,1.5-.3,3,3,0,0,1,2.2.8,3.17,3.17,0,0,1,.7,2.3Z"/><path class="cls-2" d="M245.45,24.4a3.93,3.93,0,0,0,1.4-.3v1.7a4.38,4.38,0,0,1-2.1.4,2.58,2.58,0,0,1-2-.7,3.28,3.28,0,0,1-.6-2.1v-4h-1v-1l1.2-.8.6-1.8h1.4v1.8h2.3v1.7h-2.3v4a.78.78,0,0,0,.3.7A.8.8,0,0,0,245.45,24.4Z"/></g></g><g id="ID.me_Logo_color_" data-name="ID.me Logo (color)"><path class="cls-3" d="M55.55,12.4h-.8c-1.1,0-1.6.3-1.6.9V28.6c0,.6.5.9,1.6.9h.8c1,0,1.6-.3,1.6-.9V13.3C57.15,12.7,56.55,12.4,55.55,12.4Z"/><path class="cls-3" d="M70.35,27.7a4.12,4.12,0,0,1,2.8-3.9,12,12,0,0,0,.3-2.8c0-5.6-2.8-8.6-7.9-8.6h-5.4c-.8,0-1.1.3-1.1,1.1v15c0,.8.3,1.1,1.1,1.1h5.4a8.21,8.21,0,0,0,4.8-1.3Zm-4.7-1.6h-2.5V15.8h2.5c3.1,0,3.8,2.8,3.8,5.2S68.75,26.1,65.65,26.1Z"/><circle class="cls-4" cx="74.45" cy="27.7" r="1.9"/><path class="cls-3" d="M101.15,25H101a.71.71,0,0,0-.6.3,2.19,2.19,0,0,0-.3.5,4.81,4.81,0,0,1-1.2,1.6,3.09,3.09,0,0,1-2.6.7,1.88,1.88,0,0,1-1.1-.8,3.7,3.7,0,0,1-.6-2.1c1.3-.1,5.1-.7,5.4-3.6a1.65,1.65,0,0,0-.5-1.5,2.86,2.86,0,0,0-2.1-.8c-2.5,0-5.1,2.7-5.4,5.7a4.45,4.45,0,0,0,.3,2.3,2.09,2.09,0,0,1-.6.4,1.09,1.09,0,0,1-.5.1c-.2-.1-.2-.3-.3-.4a4.27,4.27,0,0,1,.2-1.9l.3-1.2a9.67,9.67,0,0,0,.5-3.4A1.8,1.8,0,0,0,90,19.2a4.22,4.22,0,0,0-3.2,2,2.07,2.07,0,0,0-.5-1.5,2,2,0,0,0-1.4-.5,4,4,0,0,0-3.2,2v-.3c0-.4.1-1-.3-1.3a1.14,1.14,0,0,0-.8-.3,2.49,2.49,0,0,0-.8.1,4.71,4.71,0,0,0-.5.2c-.2.2-.1.5-.1.7V21c-.1,1.1-.3,2.2-.4,3.2l-.3,1.5c-.3,1.1-.5,2.3-.7,3.4a.35.35,0,0,0,.4.4h.1c.8,0,1.7,0,1.8-.5a10.46,10.46,0,0,0,.4-1.7l.1-.3a18.87,18.87,0,0,1,.9-3.4,4.35,4.35,0,0,1,1-1.6c.4-.5.8-1,1.3-1a.52.52,0,0,1,.4.2c.5.6-.1,2.7-.4,3.5a.9.9,0,0,0-.1.5l.2.8a15.94,15.94,0,0,0-.6,3v.4l.1.1c.2.2,1.7-.1,1.7-.1a1,1,0,0,0,.7-.9c.1-.5.2-.9.3-1.4h0a22.68,22.68,0,0,1,.6-2.5,6.44,6.44,0,0,1,2-3.3c.3-.2.7-.3.9-.1s.1,1.3,0,1.7a10.46,10.46,0,0,1-.4,1.7h0c-.1.3-.2.7-.3,1.1-.2,1.1-.4,2.5.2,3.2a1.68,1.68,0,0,0,1.4.6,3.25,3.25,0,0,0,2-.7,2.65,2.65,0,0,0,.6-.5,3.67,3.67,0,0,0,3,1.3,5.32,5.32,0,0,0,5-3.4l.3-.6C101.55,25.4,101.45,25.1,101.15,25Zm-3.5-3.7v.3c0,.2-.1.5-.1.7A2.45,2.45,0,0,1,95,23.9a4.92,4.92,0,0,1,.6-1.7c.5-1,1.1-1.6,1.6-1.6h.2l.1.1h0v.1h0v.3h0l.2.2Z"/></g></g></svg>