<svg id="Artboards" xmlns="http://www.w3.org/2000/svg" viewBox="0 0 300 42"><defs><style>.cls-1{fill:#08833d;fill-rule:evenodd;}.cls-2{isolation:isolate;}.cls-3{fill:#fff;}</style></defs><g id="Sign_In" data-name="Sign In"><path id="Background" class="cls-1" d="M5.15,0H295c2.8,0,5.1,1.7,5.1,3.7V38.3c0,2-2.3,3.7-5.1,3.7H5.15c-2.8-.1-5.1-1.8-5.1-3.8V3.7C0,1.7,2.25,0,5.15,0Z"/><g id="Sign_in_with" data-name="Sign in with" class="cls-2"><path class="cls-3" d="M84.81,23.2a2.76,2.76,0,0,1-1,2.3,4.35,4.35,0,0,1-2.9.8,7,7,0,0,1-3-.6V23.6c.7.3,1.3.5,1.8.7a7.84,7.84,0,0,0,1.4.2,1.61,1.61,0,0,0,1.1-.3.91.91,0,0,0,.4-.8,1.42,1.42,0,0,0-.2-.6c-.1-.2-.3-.3-.5-.5a5.78,5.78,0,0,0-1.4-.7,6.56,6.56,0,0,1-1.5-.9,2.54,2.54,0,0,1-.8-1,2.77,2.77,0,0,1-.3-1.3,2.57,2.57,0,0,1,1-2.2,4.14,4.14,0,0,1,2.7-.8,7.77,7.77,0,0,1,1.6.2,6.39,6.39,0,0,1,1.6.6l-.7,1.8c-.6-.2-1-.4-1.4-.5a4.1,4.1,0,0,0-1.1-.1,1.49,1.49,0,0,0-1,.3,1.14,1.14,0,0,0-.3.8.75.75,0,0,0,.1.5c.1.1.2.3.4.4s.7.4,1.4.8a8.32,8.32,0,0,1,2.1,1.4A2.35,2.35,0,0,1,84.81,23.2Z"/><path class="cls-3" d="M86.41,15.9c0-.7.4-1.1,1.2-1.1s1.2.4,1.2,1.1a1.14,1.14,0,0,1-.3.8,1.22,1.22,0,0,1-.9.3C86.81,17,86.41,16.6,86.41,15.9Zm2.4,10.3h-2.2V18h2.2Z"/><path class="cls-3" d="M98.21,18v1.1l-1.3.3a2.84,2.84,0,0,1,.4,1.2,2.58,2.58,0,0,1-.9,2.1,4,4,0,0,1-2.6.7h-.7a.86.86,0,0,0-.3.6c0,.3.4.5,1.2.5h1.4a3.28,3.28,0,0,1,2.1.6,2.06,2.06,0,0,1,.7,1.7A2.4,2.4,0,0,1,97,29a6.32,6.32,0,0,1-3.4.8,4.76,4.76,0,0,1-2.6-.6,2,2,0,0,1-.9-1.7,1.66,1.66,0,0,1,.5-1.2,2.65,2.65,0,0,1,1.4-.7,2.65,2.65,0,0,1-.6-.5,1.08,1.08,0,0,1-.3-.7,1.14,1.14,0,0,1,.3-.8,2.76,2.76,0,0,1,.8-.6,2.19,2.19,0,0,1-1-.9,3.31,3.31,0,0,1-.4-1.5,2.58,2.58,0,0,1,.9-2.1,3.73,3.73,0,0,1,2.5-.7,2.49,2.49,0,0,1,.8.1,3.54,3.54,0,0,1,.6.1Zm-6.3,9.4a.75.75,0,0,0,.4.7,2.13,2.13,0,0,0,1.2.3,5,5,0,0,0,1.9-.3.93.93,0,0,0,.7-.9.55.55,0,0,0-.4-.6,3.73,3.73,0,0,0-1.2-.2h-1.2a1.49,1.49,0,0,0-1,.3A.72.72,0,0,0,91.91,27.4Zm.8-6.7a2,2,0,0,0,.3,1.1,1.21,1.21,0,0,0,1.8,0,1.8,1.8,0,0,0,.3-1.1q0-1.5-1.2-1.5T92.71,20.7Z"/><path class="cls-3" d="M107.22,26.2H105V21.4a2.27,2.27,0,0,0-.3-1.3,1.05,1.05,0,0,0-1-.4,1.68,1.68,0,0,0-1.4.6,3.69,3.69,0,0,0-.4,2.1v3.8H99.71V18h1.7l.31,1h0a2.19,2.19,0,0,1,1-.9,3.34,3.34,0,0,1,1.5-.3,3,3,0,0,1,2.2.8,3.07,3.07,0,0,1,.7,2.2l.1,5.4Z"/><path class="cls-3" d="M113.32,15.9c0-.7.4-1.1,1.2-1.1s1.2.4,1.2,1.1a1.14,1.14,0,0,1-.3.8,1.22,1.22,0,0,1-.9.3C113.72,17,113.32,16.6,113.32,15.9Zm2.3,10.3h-2.2V18h2.2Z"/><path class="cls-3" d="M125.52,26.2h-2.2V21.4a2.27,2.27,0,0,0-.3-1.3,1.05,1.05,0,0,0-1-.4,1.68,1.68,0,0,0-1.4.6,3.69,3.69,0,0,0-.4,2.1v3.8H118V18h1.7l.3,1h.1a2.19,2.19,0,0,1,1-.9,3.34,3.34,0,0,1,1.5-.3,3,3,0,0,1,2.2.8,3.07,3.07,0,0,1,.7,2.2Z"/><path class="cls-3" d="M138.43,26.2l-.6-2.9-.8-3.6h-.1l-1.5,6.5H133L130.72,18h2.21l.9,3.6a22.43,22.43,0,0,1,.5,2.7h0a8.21,8.21,0,0,1,.3-1.8l.1-.6,1-3.9h2.5l1,3.9a1.09,1.09,0,0,0,.1.5c0,.2.1.4.1.7s.1.5.1.7a4.33,4.33,0,0,0,.1.5h0a9.32,9.32,0,0,1,.2-1.4c.1-.6.2-1,.2-1.2l1-3.6h2.2l-2.4,8.2-2.4-.1Z"/><path class="cls-3" d="M144.43,15.9c0-.7.4-1.1,1.2-1.1s1.2.4,1.2,1.1a1.14,1.14,0,0,1-.3.8,1.22,1.22,0,0,1-.9.3C144.83,17,144.43,16.6,144.43,15.9Zm2.4,10.3h-2.2V18h2.2Z"/><path class="cls-3" d="M152.53,24.6a3.93,3.93,0,0,0,1.4-.3V26a6,6,0,0,1-2.1.4,2.58,2.58,0,0,1-2-.7,3,3,0,0,1-.6-2V19.8h-1.1v-.9l1.2-.7.6-1.7h1.4v1.7h2.3v1.7h-2.3v3.9a.78.78,0,0,0,.3.7A2.77,2.77,0,0,0,152.53,24.6Z"/><path class="cls-3" d="M163.23,26.2H161V21.4c0-1.2-.4-1.8-1.3-1.8a1.68,1.68,0,0,0-1.4.6,3.69,3.69,0,0,0-.4,2.1v3.9h-2.2V14.8h2.2v2.3a8.47,8.47,0,0,1-.1,1.3l-.1.7h.1a2.62,2.62,0,0,1,2.4-1.2,3,3,0,0,1,2.2.8,3.07,3.07,0,0,1,.7,2.2l.1,5.3Z"/></g><g id="ID.me_Logo_white_" data-name="ID.me Logo (white)"><path class="cls-3" d="M176.24,12.4h-.8c-1.1,0-1.6.3-1.6.9V28.6c0,.6.5.9,1.6.9h.8c1,0,1.6-.3,1.6-.9V13.3C177.84,12.7,177.24,12.4,176.24,12.4Z"/><path class="cls-3" d="M191,27.7a4.12,4.12,0,0,1,2.8-3.9,12,12,0,0,0,.3-2.8c0-5.6-2.8-8.6-7.9-8.6h-5.4c-.8,0-1.1.3-1.1,1.1v15c0,.8.3,1.1,1.1,1.1h5.4a8.21,8.21,0,0,0,4.8-1.3Zm-4.7-1.6h-2.5V15.8h2.5c3.1,0,3.8,2.8,3.8,5.2S189.44,26.1,186.34,26.1Z"/><circle class="cls-3" cx="195.15" cy="27.7" r="1.9"/><path class="cls-3" d="M221.85,25h-.2a.71.71,0,0,0-.6.3,2.19,2.19,0,0,0-.3.5,4.81,4.81,0,0,1-1.2,1.6,3.09,3.09,0,0,1-2.6.7,1.88,1.88,0,0,1-1.1-.8,3.7,3.7,0,0,1-.6-2.1c1.3-.1,5.1-.7,5.4-3.6a1.65,1.65,0,0,0-.5-1.5,2.86,2.86,0,0,0-2.1-.8c-2.5,0-5.1,2.7-5.4,5.7a4.45,4.45,0,0,0,.3,2.3,2.09,2.09,0,0,1-.6.4,1.09,1.09,0,0,1-.5.1c-.2-.1-.2-.3-.3-.4a4.27,4.27,0,0,1,.2-1.9l.3-1.2a9.67,9.67,0,0,0,.5-3.4,1.8,1.8,0,0,0-1.9-1.7,4.22,4.22,0,0,0-3.2,2,2.07,2.07,0,0,0-.5-1.5,2,2,0,0,0-1.4-.5,4,4,0,0,0-3.2,2v-.3c0-.4.1-1-.3-1.3a1.14,1.14,0,0,0-.8-.3,2.49,2.49,0,0,0-.8.1,4.71,4.71,0,0,0-.5.2c-.2.2-.1.5-.1.7V21c-.1,1.1-.3,2.2-.4,3.2l-.3,1.5c-.3,1.1-.5,2.3-.7,3.4a.35.35,0,0,0,.4.4h.1c.8,0,1.7,0,1.8-.5a10.46,10.46,0,0,0,.4-1.7l.1-.3a18.87,18.87,0,0,1,.9-3.4,4.35,4.35,0,0,1,1-1.6c.4-.5.8-1,1.3-1a.52.52,0,0,1,.4.2c.5.6-.1,2.7-.4,3.5a.9.9,0,0,0-.1.5l-.2.7a15.94,15.94,0,0,0-.6,3v.4l.1.1c.2.2,1.7-.1,1.7-.1a1,1,0,0,0,.7-.9c.1-.5.2-.9.3-1.4h0a22.68,22.68,0,0,1,.6-2.5,6.44,6.44,0,0,1,2-3.3c.3-.2.7-.3.9-.1s.1,1.3,0,1.7a10.46,10.46,0,0,1-.4,1.7h0c-.1.3-.2.7-.3,1.1-.2,1.1-.4,2.5.2,3.2a1.68,1.68,0,0,0,1.4.6,3.25,3.25,0,0,0,2-.7,2.65,2.65,0,0,0,.6-.5,3.67,3.67,0,0,0,3,1.3,5.32,5.32,0,0,0,5-3.4l.3-.6C222.25,25.4,222.15,25.1,221.85,25Zm-3.5-3.7v.3c0,.2-.1.5-.1.7a2.45,2.45,0,0,1-2.6,1.6,4.92,4.92,0,0,1,.6-1.7c.5-1,1.1-1.6,1.6-1.6h.2l.1.1h0v.1h0v.3h0l.2.2Z"/></g></g></svg>